<?xml version="1.0" encoding="utf-8"?>
<!-- Generator: Adobe Illustrator 26.2.1, SVG Export Plug-In . SVG Version: 6.00 Build 0)  -->
<svg version="1.1" id="Layer_1" xmlns="http://www.w3.org/2000/svg" xmlns:xlink="http://www.w3.org/1999/xlink" x="0px" y="0px"
	 viewBox="0 0 230 28" style="enable-background:new 0 0 230 28;" xml:space="preserve">
<style type="text/css">
	.st0{clip-path:url(#SVGID_00000026863823733027111070000011660402872906244510_);}
	.st1{fill:#F08524;}
	.st2{fill:#E74B5D;}
</style>
<g>
	<defs>
		<rect id="SVGID_1_" width="230" height="28"/>
	</defs>
	<clipPath id="SVGID_00000110470807300861253360000001895911406778675844_">
		<use xlink:href="#SVGID_1_"  style="overflow:visible;"/>
	</clipPath>
	<g style="clip-path:url(#SVGID_00000110470807300861253360000001895911406778675844_);">
		<path d="M8.2,6h3.6l4,6.5l4-6.5h3.6v15.3H20v-10l-4.2,6.5h-0.1l-4.2-6.5v9.9H8.2V6z"/>
		<path d="M32.1,5.9h3.1l6.5,15.4h-3.5l-1.4-3.4h-6.4L29,21.3h-3.4L32.1,5.9z M35.6,14.9l-2-5l-2,5H35.6z"/>
		<path d="M43.9,6H47l7.1,9.4V6h3.3v15.3h-2.8l-7.3-9.7v9.7h-3.3V6z"/>
		<path d="M68.2,21.6C67,21.6,66,21.4,65,21c-1-0.4-1.8-0.9-2.5-1.6c-0.7-0.7-1.2-1.5-1.6-2.5c-0.4-1-0.6-2-0.6-3.1v0
			c0-1.1,0.2-2.1,0.6-3.1c0.4-1,0.9-1.8,1.6-2.5C63.2,7.3,64,6.8,65,6.4c1-0.4,2-0.6,3.2-0.6c0.7,0,1.3,0,1.8,0.1
			c0.6,0.1,1.1,0.2,1.5,0.4c0.5,0.2,0.9,0.4,1.3,0.7c0.4,0.3,0.8,0.6,1.2,0.9L72,10.4c-0.3-0.2-0.6-0.5-0.9-0.7
			c-0.3-0.2-0.6-0.4-0.9-0.5c-0.3-0.1-0.6-0.2-1-0.3s-0.8-0.1-1.2-0.1c-0.6,0-1.2,0.1-1.7,0.4c-0.5,0.3-1,0.6-1.4,1
			c-0.4,0.4-0.7,0.9-0.9,1.5c-0.2,0.6-0.3,1.2-0.3,1.9v0c0,0.7,0.1,1.3,0.3,1.9c0.2,0.6,0.5,1.1,1,1.5c0.4,0.4,0.9,0.8,1.4,1
			c0.6,0.2,1.2,0.4,1.8,0.4c1.2,0,2.3-0.3,3.1-0.9v-2.2h-3.3v-2.9h6.5v6.6c-0.8,0.7-1.7,1.2-2.8,1.7C70.8,21.3,69.6,21.6,68.2,21.6z
			"/>
		<path d="M85.1,21.6c-1.2,0-2.2-0.2-3.2-0.6c-1-0.4-1.8-1-2.5-1.7c-0.7-0.7-1.3-1.5-1.7-2.5c-0.4-1-0.6-2-0.6-3.1v0
			c0-1.1,0.2-2.1,0.6-3.1c0.4-1,1-1.8,1.7-2.5C80.2,7.3,81,6.8,82,6.4c1-0.4,2.1-0.6,3.2-0.6c1.2,0,2.2,0.2,3.2,0.6
			c1,0.4,1.8,1,2.5,1.7c0.7,0.7,1.3,1.5,1.7,2.5c0.4,1,0.6,2,0.6,3.1v0c0,1.1-0.2,2.1-0.6,3.1c-0.4,1-1,1.8-1.7,2.5
			c-0.7,0.7-1.6,1.3-2.5,1.7C87.4,21.3,86.3,21.6,85.1,21.6z M85.2,18.4c0.7,0,1.3-0.1,1.8-0.4c0.6-0.2,1-0.6,1.4-1
			c0.4-0.4,0.7-0.9,0.9-1.5c0.2-0.6,0.3-1.2,0.3-1.8v0c0-0.7-0.1-1.3-0.3-1.9c-0.2-0.6-0.5-1.1-1-1.5c-0.4-0.4-0.9-0.8-1.5-1
			c-0.6-0.2-1.2-0.4-1.8-0.4c-0.7,0-1.3,0.1-1.8,0.4c-0.6,0.2-1,0.6-1.4,1c-0.4,0.4-0.7,0.9-0.9,1.5c-0.2,0.6-0.3,1.2-0.3,1.8v0
			c0,0.7,0.1,1.3,0.3,1.9c0.2,0.6,0.5,1.1,1,1.5c0.4,0.4,0.9,0.8,1.4,1C83.9,18.3,84.5,18.4,85.2,18.4z"/>
		<path d="M149.9,6.1h3.6l4,6.5l4-6.5h3.6v15.3h-3.3v-10l-4.2,6.5h-0.1l-4.2-6.5v9.9h-3.3V6.1z"/>
		<path d="M168.6,6.1h11.3v3h-8.1v3.1h7.1v3h-7.1v3.2h8.2v3h-11.5V6.1z"/>
		<path d="M183,6.1h5.9c1.2,0,2.3,0.2,3.2,0.6c1,0.4,1.8,0.9,2.5,1.6c0.7,0.7,1.3,1.5,1.6,2.4c0.4,0.9,0.6,1.9,0.6,3v0
			c0,1.1-0.2,2.1-0.6,3c-0.4,0.9-0.9,1.7-1.6,2.4c-0.7,0.7-1.6,1.2-2.5,1.6c-1,0.4-2.1,0.6-3.2,0.6H183V6.1z M188.9,18.3
			c0.7,0,1.3-0.1,1.9-0.3c0.6-0.2,1-0.5,1.4-0.9c0.4-0.4,0.7-0.9,0.9-1.4c0.2-0.6,0.3-1.2,0.3-1.9v0c0-0.7-0.1-1.3-0.3-1.9
			c-0.2-0.6-0.5-1.1-0.9-1.5c-0.4-0.4-0.9-0.7-1.4-0.9c-0.6-0.2-1.2-0.3-1.9-0.3h-2.6v9.2L188.9,18.3L188.9,18.3z"/>
		<path d="M200,6.1h3.3v15.3H200V6.1z"/>
		<path d="M212.2,5.9h3.1l6.5,15.4h-3.5l-1.4-3.4h-6.4l-1.4,3.4h-3.4L212.2,5.9z M215.7,14.9l-2-5l-2,5H215.7z"/>
		<path class="st1" d="M116,28c2.1,0,4-0.8,5.5-2.1c1.5,1.3,3.4,2.1,5.5,2.1c4.6,0,8.3-3.8,8.3-8.4V14c0-1.5-1.2-2.8-2.8-2.8
			c-1.5,0-2.8,1.3-2.8,2.8v5.6c0,1.5-1.2,2.8-2.8,2.8c-1.5,0-2.8-1.3-2.8-2.8V14c0-1.5-1.2-2.8-2.8-2.8c-1.5,0-2.8,1.3-2.8,2.8v5.6
			c0,1.5-1.2,2.8-2.8,2.8c-1.5,0-2.8-1.3-2.8-2.8V14c0-1.5-1.2-2.8-2.8-2.8c-1.5,0-2.8,1.3-2.8,2.8v5.6C107.7,24.2,111.5,28,116,28z
			"/>
		<path class="st2" d="M110.5,16.8c1.5,0,2.8-1.3,2.8-2.8V8.4c0-1.5,1.2-2.8,2.8-2.8c1.5,0,2.8,1.3,2.8,2.8V14
			c0,1.5,1.2,2.8,2.8,2.8c1.5,0,2.8-1.3,2.8-2.8V8.4c0-1.5,1.2-2.8,2.8-2.8c1.5,0,2.8,1.3,2.8,2.8V14c0,1.5,1.2,2.8,2.8,2.8
			c1.5,0,2.8-1.3,2.8-2.8V8.4c0-4.6-3.7-8.4-8.3-8.4c-2.1,0-4,0.8-5.5,2.1C120.1,0.8,118.1,0,116,0c-4.6,0-8.3,3.8-8.3,8.4V14
			C107.7,15.5,109,16.8,110.5,16.8z"/>
	</g>
</g>
</svg>
