<svg xmlns="http://www.w3.org/2000/svg" viewBox="0 0 1394.91 230.48"><defs><style>.cls-1{fill:none;}.cls-2{fill:#fff;}.cls-3{fill:#055f91;}.cls-4{fill:#0971b7;}.cls-5{fill:#55ad18;}.cls-6{fill:#8cbf44;}.cls-7{fill:#9bd162;}</style></defs><g id="Layer_2" data-name="Layer 2"><path class="cls-1" d="M943.23,195.7a84.4,84.4,0,0,0,7.57,8.73A84.4,84.4,0,0,1,943.23,195.7Z"></path><path class="cls-1" d="M1087.62,154.25c0-.41.08-.85.13-1.3,0,.45-.09.89-.13,1.3Z"></path><path class="cls-1" d="M1116.44,187.66c.54.59,1.08,1.17,1.64,1.75.77.79,1.56,1.56,2.37,2.3-.81-.74-1.6-1.51-2.37-2.3C1117.52,188.83,1117,188.25,1116.44,187.66Z"></path><path class="cls-1" d="M1112.41,100.88a63.53,63.53,0,0,0-4.7,7.3c-.25.46-.48.94-.72,1.41.24-.47.47-1,.72-1.41A63.53,63.53,0,0,1,1112.41,100.88Z"></path><path class="cls-1" d="M1136.19,202.42c1.39.69,2.8,1.35,4.26,2,.82.34,1.64.66,2.48,1-.84-.3-1.66-.62-2.48-1C1139,203.77,1137.58,203.11,1136.19,202.42Z"></path><path class="cls-1" d="M1099.33,138a68.35,68.35,0,0,1,5.65-24.25A68.35,68.35,0,0,0,1099.33,138Z"></path><path class="cls-1" d="M946.85,136.15A69.47,69.47,0,0,1,955,108.62,69.47,69.47,0,0,0,946.85,136.15Z"></path><path class="cls-1" d="M969.35,90.81A63.53,63.53,0,0,0,955,108.62,63.53,63.53,0,0,1,969.35,90.81Z"></path><path class="cls-1" d="M1026.05,74.44c-2.66-.22-5.39-.33-8.21-.33q-2.8,0-5.52.15,2.71-.15,5.52-.15C1020.66,74.11,1023.39,74.22,1026.05,74.44Z"></path><path class="cls-1" d="M1022.87,103.39a30.45,30.45,0,0,1,3.54.83A30.45,30.45,0,0,0,1022.87,103.39Z"></path><path class="cls-1" d="M999.05,109.05a27,27,0,0,1,4.39-2.83A27,27,0,0,0,999.05,109.05Z"></path><polygon class="cls-1" points="988.77 129.48 1046.16 129.48 1046.16 129.48 988.77 129.48 988.77 129.48"></polygon><path class="cls-1" d="M1017.09,102.93a30.51,30.51,0,0,0-3.47.2,30.51,30.51,0,0,1,3.47-.2Z"></path><path class="cls-1" d="M1042.76,117.79a26.75,26.75,0,0,0-1.4-2.31,32.66,32.66,0,0,0-2.15-2.82,30.68,30.68,0,0,1,2.14,2.82A24.54,24.54,0,0,1,1042.76,117.79Z"></path><path class="cls-1" d="M1069.39,190.8a55.41,55.41,0,0,0,9.13-11.05A55.41,55.41,0,0,1,1069.39,190.8Z"></path><path class="cls-1" d="M1000.59,175a27.79,27.79,0,0,0,4.61,2.63A27.79,27.79,0,0,1,1000.59,175Z"></path><path class="cls-1" d="M1046.92,164.87h0q-2.79,7.08-10.75,11.38a35.39,35.39,0,0,1-10,3.59,35.39,35.39,0,0,0,10-3.59Q1044.14,171.95,1046.92,164.87Z"></path><path class="cls-1" d="M1170.28,74.11q23,0,38.81,9.61a61.86,61.86,0,0,1,21.35,21.15,61.86,61.86,0,0,0-21.35-21.15q-15.81-9.6-38.81-9.61-22.24,0-38.17,9.36c-1.89,1.11-3.66,2.3-5.39,3.53,1.73-1.23,3.5-2.42,5.39-3.53Q1148,74.11,1170.28,74.11Z"></path><path class="cls-1" d="M995.15,169.8c-.28-.34-.55-.69-.82-1.05a26.76,26.76,0,0,1-4.8-14.5,26.76,26.76,0,0,0,4.8,14.5C994.6,169.11,994.87,169.46,995.15,169.8Z"></path><path class="cls-1" d="M1068.62,92.74c-.49-.47-1-.93-1.49-1.38-.72-.65-1.47-1.27-2.23-1.88.76.61,1.51,1.23,2.23,1.88C1067.64,91.81,1068.13,92.27,1068.62,92.74Z"></path><path class="cls-1" d="M1059.33,85.4c-1-.65-2-1.31-3.06-1.93,1.18.7,2.32,1.43,3.43,2.17Z"></path><path class="cls-1" d="M1054.25,82.34c-.68-.37-1.37-.72-2.06-1.06q2.08,1,4.08,2.19C1055.61,83.08,1054.94,82.71,1054.25,82.34Z"></path><path class="cls-2" d="M915.38,206.22A93.23,93.23,0,0,0,927.51,202l0-.1,0,0c-2.06.83-4.12,1.65-6.22,2.39C919.31,205,917.35,205.64,915.38,206.22Z"></path><path class="cls-3" d="M299,168.41q-3.8,1.26-8.47,2.91a27.84,27.84,0,0,1-9.23,1.64c-3.54,0-6.32-.94-8.34-2.84s-3.12-5.07-3.29-9.52V107h26.8V76.13h-26.8V33.66H229.26V76.13H212.33V107h16.93v68q0,12.7,5.06,20.43a28.46,28.46,0,0,0,13.4,11.09,49,49,0,0,0,18.45,3.36,77.1,77.1,0,0,0,14.54-1.39,104.93,104.93,0,0,0,13.9-3.67c2.61-.88,5-1.8,7.33-2.74,1.63-.67,3.21-1.36,4.68-2.06l-4.68-19.52Z"></path><path class="cls-3" d="M400.16,72.6a39.67,39.67,0,0,0-20,6.05c-.92.56-1.83,1.15-2.73,1.78q-2,1.42-4,3c-1.27,1.09-2.49,2.24-3.68,3.46a62.69,62.69,0,0,0-10.32,14.48V76.13H322.55V207.34H363V127.71q5.31-9.1,17.19-13.78a72,72,0,0,1,26.49-4.68h.05V72.85a12.77,12.77,0,0,0-2.53-.25Z"></path><path class="cls-3" d="M543.37,171c-1.26-1.65-1.89-4.47-1.89-8.44V128.76q0-26.82-16.56-40.74T478.53,74.11a107.25,107.25,0,0,0-30.21,4.17,98.41,98.41,0,0,0-14,5.28c-2.29,1.07-4.55,2.22-6.79,3.47l-.19.11q-3.25,1.83-6.45,3.91l6.45,13.71L433,116.84A111.87,111.87,0,0,1,453.75,106a57.23,57.23,0,0,1,20.73-3.8q13.39,0,20,5.51T501,123.93v5.8a61.64,61.64,0,0,0-13.65-3.92,91.78,91.78,0,0,0-15.93-1.39q-16.68,0-29.58,5.62t-20.22,15.49a36.92,36.92,0,0,0-7.34,22.61,39.09,39.09,0,0,0,6.07,21.49,41.92,41.92,0,0,0,16.56,14.87,51.11,51.11,0,0,0,23.64,5.37,58.31,58.31,0,0,0,25.66-5.94,57.19,57.19,0,0,0,20.85-17.32l1,5.81a21,21,0,0,0,7.58,12.39q5.8,4.56,17.19,4.55c2.19,0,4.72-.12,7.58-.38a61,61,0,0,0,9.36-1.64V173.72C546.78,173.55,544.64,172.64,543.37,171ZM501,162.88a9.86,9.86,0,0,1-1.77,5,20,20,0,0,1-4.55,5,31,31,0,0,1-10.12,5.52,37.1,37.1,0,0,1-12.13,2.08A24.39,24.39,0,0,1,462,178.46a16.67,16.67,0,0,1-7-5.89,14.18,14.18,0,0,1-2.53-8q0-7.6,7.33-12.51t18.2-4.91a67.58,67.58,0,0,1,11.63,1.11A60.47,60.47,0,0,1,501,151.34Z"></path><polygon class="cls-3" points="625.41 171.35 596.34 76.14 554.62 76.14 601.39 207.34 645.63 207.34 692.4 76.14 654.48 76.14 625.41 171.35"></polygon><path class="cls-3" d="M829.3,108.32a60.72,60.72,0,0,0-13.29-17,64.39,64.39,0,0,0-7-5.45c-1.24-.84-2.53-1.66-3.86-2.44s-2.68-1.51-4.08-2.19a62.91,62.91,0,0,0-8.79-3.51q-2.29-.73-4.7-1.32a80,80,0,0,0-10-1.75,97.26,97.26,0,0,0-10.84-.59q-22.51,0-38.43,9.47a64.76,64.76,0,0,0-24.39,25,71,71,0,0,0-8.47,34.51,68.29,68.29,0,0,0,4.8,25.37,62.55,62.55,0,0,0,14,21.37,67,67,0,0,0,22.37,14.63q13.14,5.37,30.09,5.37a78.47,78.47,0,0,0,27.68-4.68A71.71,71.71,0,0,0,816,192.8a55.21,55.21,0,0,0,14.16-18.07l-34.38-9.86Q793,172,785.05,176.25a35.9,35.9,0,0,1-17.31,4.29,33.07,33.07,0,0,1-13.65-2.94,26.18,26.18,0,0,1-15.68-23.35H836.5c.17-1.66.38-3.62.63-5.86a59.82,59.82,0,0,0,.38-6.87,70.82,70.82,0,0,0-8.21-33.2Zm-91.65,21.16a30.76,30.76,0,0,1,4.56-14.13,26.21,26.21,0,0,1,10.11-9.13,31,31,0,0,1,27.81,0,28.57,28.57,0,0,1,10.11,9.26,29.43,29.43,0,0,1,4.8,14Z"></path><path class="cls-3" d="M932.45,176.68c-.08-.19-.17-.39-.25-.59-.21-.52-.39-1.05-.59-1.58-.76-2-1.46-4.07-2.07-6.14-.43-1.49-.82-3-1.18-4.52-9.46,5.69-23,13.25-29.42,8.1-2.42-1.95-3-6.32-3-11.88V22.79H855.46V174.22q0,17.21,9.35,26.42t26.8,9.23a85.2,85.2,0,0,0,23.77-3.65c-1.21.33-2.44.66-3.71,1,4.45-1.18,10.67-3.32,15.78-5.24,2.41-1,4.82-2,7.26-2.87.55-.2,6.36-2.73,8.52-3.38A82.92,82.92,0,0,1,932.45,176.68Z"></path><path class="cls-4" d="M915.38,206.22c2-.58,3.93-1.2,5.85-1.88,2.1-.74,4.16-1.56,6.22-2.39-5.11,1.92-11.33,4.06-15.78,5.24C912.94,206.88,914.17,206.55,915.38,206.22Z"></path><path class="cls-5" d="M1087.83,130.73c-.23-1.47-.49-2.93-.81-4.37A69.64,69.64,0,0,0,1083,113.7c-.39-.91-.79-1.81-1.21-2.71s-.87-1.79-1.34-2.67q-1.28-2.43-2.75-4.69a61.55,61.55,0,0,0-4.84-6.47c-.88-1-1.81-2-2.76-3-.47-.48-1-1-1.44-1.43s-1-.93-1.49-1.38c-.72-.65-1.47-1.27-2.23-1.88s-1.66-1.3-2.52-1.94c-.46-.34-.93-.69-1.41-1-.27-.2-.55-.41-.84-.6l-.28-.18-.15-.09c-1.11-.74-2.25-1.47-3.43-2.17s-2.69-1.51-4.08-2.19a64.23,64.23,0,0,0-7.28-3c-.5-.17-1-.35-1.51-.51-.77-.24-1.54-.48-2.32-.7l-2.38-.62c-2.4-.58-4.88-1.06-7.44-1.42q-1.27-.18-2.58-.33c-.87-.1-1.74-.18-2.63-.26-2.66-.22-5.39-.33-8.21-.33q-2.8,0-5.52.15a85.68,85.68,0,0,0-12.91,1.66,71,71,0,0,0-9.4,2.67,64.9,64.9,0,0,0-6.51,2.77c-.7.35-1.38.7-2.07,1.07s-1.35.76-2,1.15a69.63,69.63,0,0,0-7.5,5.12c-.88.68-1.74,1.39-2.57,2.11A63.53,63.53,0,0,0,955,108.62a69.47,69.47,0,0,0-8.17,27.53q-.3,3.42-.3,7a69.51,69.51,0,0,0,1.2,13,68.55,68.55,0,0,0,2,7.71c.49,1.58,1,3.15,1.65,4.7q1.2,3,2.67,5.88a61.54,61.54,0,0,0,5.27,8.42c.66.89,1.34,1.76,2.05,2.62,1.27,1.53,2.61,3,4,4.45a63.55,63.55,0,0,0,13.06,10,73.86,73.86,0,0,0,9.31,4.58,69,69,0,0,0,6.81,2.35,72.2,72.2,0,0,0,7.28,1.67q3.76.67,7.76,1t8.23.34c1.27,0,2.52,0,3.75-.08a76.51,76.51,0,0,0,23.94-4.6c1.62-.61,3.19-1.26,4.73-1.95a76,76,0,0,0,6.93-3.48q2.7-1.55,5.19-3.29c1.66-1.16,3.24-2.38,4.76-3.67.77-.65,1.52-1.32,2.25-2a55.41,55.41,0,0,0,9.13-11.05c.5-.81,1-1.63,1.45-2.47s.91-1.69,1.33-2.55l-34.38-9.86q-2.79,7.08-10.75,11.38a35.39,35.39,0,0,1-10,3.59,36.69,36.69,0,0,1-5,.64c-.76,0-1.54.06-2.31.06a33.11,33.11,0,0,1-13.66-2.94,27.79,27.79,0,0,1-4.61-2.63,26.13,26.13,0,0,1-2.71-2.21,24.93,24.93,0,0,1-1.88-2c-.29-.32-.58-.66-.85-1s-.55-.69-.82-1.05a26.76,26.76,0,0,1-4.8-14.5h98.09c0-.41.08-.85.13-1.3.14-1.36.31-2.88.5-4.56s.28-3.4.33-5.14c0-.57.05-1.15.05-1.73,0-1.22,0-2.44-.09-3.65Q1088.36,134.26,1087.83,130.73Zm-41.67-1.25H988.77a30.75,30.75,0,0,1,4.55-14.13c.32-.48.65-1,1-1.42a25.68,25.68,0,0,1,4.74-4.88,27,27,0,0,1,4.39-2.83c.52-.27,1-.53,1.59-.77a28.48,28.48,0,0,1,3.65-1.33,30.78,30.78,0,0,1,3.05-.73c.62-.11,1.26-.19,1.89-.26a30.51,30.51,0,0,1,3.47-.2h0c.64,0,1.28,0,1.91,0s1.24.08,1.85.15,1.36.15,2,.26a30.45,30.45,0,0,1,3.54.83,25.17,25.17,0,0,1,3.28,1.23c.53.24,1,.5,1.55.77a28.88,28.88,0,0,1,2.91,1.81,27.34,27.34,0,0,1,2.65,2.15,28.26,28.26,0,0,1,2.41,2.48,32.66,32.66,0,0,1,2.15,2.82,26.75,26.75,0,0,1,1.4,2.31,28.84,28.84,0,0,1,2.81,7.8,34,34,0,0,1,.59,3.89Z"></path><path class="cls-5" d="M1232.07,174.45l-38.28-11.6a24,24,0,0,1-5.69,6.57,28.43,28.43,0,0,1-32.73,2.13,28.88,28.88,0,0,1-10.75-12,39.1,39.1,0,0,1-3.92-17.86,37.61,37.61,0,0,1,3.92-17.61,30.53,30.53,0,0,1,10.62-11.83,27.22,27.22,0,0,1,15-4.31,26.2,26.2,0,0,1,13.27,3.41,27.62,27.62,0,0,1,9.66,9.36l39.08-11.63,0,0,.22-.06.16,0c-.06-.13-.13-.24-.2-.37-.65-1.28-1.34-2.54-2.08-3.76a61.86,61.86,0,0,0-21.35-21.15q-15.81-9.6-38.81-9.61-22.24,0-38.17,9.36c-1.89,1.11-3.66,2.3-5.39,3.53a69.6,69.6,0,0,0-5.51,4.33,64.65,64.65,0,0,0-6.1,6.18q-1.41,1.63-2.7,3.37a63.53,63.53,0,0,0-4.7,7.3c-.25.46-.48.94-.72,1.41-.57,1.09-1.1,2.19-1.6,3.3-.13.3-.28.59-.41.89a68.35,68.35,0,0,0-5.65,24.25c-.06,1.23-.09,2.47-.09,3.71a73.17,73.17,0,0,0,1.2,13.35,65.42,65.42,0,0,0,1.51,6.4q.9,3.15,2.1,6.21c.72,1.84,1.53,3.62,2.4,5.36a63.11,63.11,0,0,0,4.48,7.62,64.21,64.21,0,0,0,5.51,7c.54.59,1.08,1.17,1.64,1.75.77.79,1.56,1.56,2.37,2.3s1.64,1.48,2.49,2.19,1.72,1.39,2.61,2.06a65.53,65.53,0,0,0,5.59,3.74c1.62,1,3.31,1.87,5,2.72,1.39.69,2.8,1.35,4.26,2,.82.34,1.64.66,2.48,1s1.7.59,2.55.87a75.41,75.41,0,0,0,16.82,3.31q4,.34,8.23.35c1.29,0,2.56,0,3.81-.08a73.63,73.63,0,0,0,23.75-4.6,75.8,75.8,0,0,0,11.31-5.43q2.63-1.55,5-3.29c1.61-1.16,3.16-2.38,4.63-3.67.71-.61,1.39-1.24,2.06-1.88,1-.94,1.92-1.92,2.82-2.92s1.85-2.08,2.7-3.17a56.11,56.11,0,0,0,4.55-6.78c.45-.79.89-1.59,1.3-2.41l.16-.3c.11-.2.22-.4.32-.61l-.28-.08Z"></path><path class="cls-5" d="M1374.18,138.13c-.11-2-.28-3.92-.53-5.83,0-.31-.09-.62-.13-.93a67.81,67.81,0,0,0-4.15-15.49,70.56,70.56,0,0,0-13.66-21.7,63.68,63.68,0,0,0-7-6.52c-1.63-1.31-3.33-2.54-5.08-3.69a64.89,64.89,0,0,0-8.32-4.56,58.83,58.83,0,0,0-8.93-3.23c-1-.27-2-.52-3.08-.74a61,61,0,0,0-12.76-1.33,63.52,63.52,0,0,0-9.43.7c-1,.16-2,.33-3,.54-1.21.24-2.41.52-3.59.83a58.9,58.9,0,0,0-9,3.23,64,64,0,0,0-8.3,4.56c-.87.57-1.73,1.17-2.57,1.78a61.31,61.31,0,0,0-4.87,4c-.78.71-1.54,1.43-2.29,2.17s-1.48,1.52-2.19,2.31c-1,1.06-1.91,2.16-2.8,3.28-.68.84-1.33,1.69-2,2.56a71.34,71.34,0,0,0-5.18,8.24c-.53,1-1,2-1.51,3-.35.71-.67,1.43-1,2.16s-.74,1.63-1.08,2.47c-.06.14-.11.29-.16.44a65.08,65.08,0,0,0-2.29,6.87c-.23.83-.44,1.67-.63,2.51a69.14,69.14,0,0,0-1.38,8.1,75.38,75.38,0,0,0-.47,8.44,73.43,73.43,0,0,0,.5,8.44,69.82,69.82,0,0,0,1.21,7.25c.19.86.4,1.73.63,2.58s.46,1.72.72,2.56c.51,1.7,1.1,3.38,1.75,5s1.35,3.2,2.09,4.75c.5,1,1,2.06,1.54,3.07a68.14,68.14,0,0,0,7.09,10.64q1.35,1.67,2.8,3.24a64.26,64.26,0,0,0,6.93,6.51,61,61,0,0,0,7.72,5.34,62.59,62.59,0,0,0,5.57,2.91c1,.44,1.93.86,2.91,1.24a56.84,56.84,0,0,0,9.13,2.73,61.09,61.09,0,0,0,6.43,1,66.6,66.6,0,0,0,6.69.33c1.12,0,2.22,0,3.32-.09a62,62,0,0,0,6.46-.66,56.36,56.36,0,0,0,12.21-3.31c1-.38,2-.8,2.91-1.24,1.39-.64,2.74-1.34,4.06-2.07,1-.52,1.89-1.07,2.81-1.64q1.76-1.08,3.45-2.28c1-.73,2-1.47,3-2.26a65.94,65.94,0,0,0,7-6.51,67.29,67.29,0,0,0,11-15.76q1.46-2.88,2.65-5.94a68.83,68.83,0,0,0,2.93-9.38c.25-1.06.47-2.13.67-3.21.38-2,.66-4.09.86-6.17q.35-3.51.35-7.11C1374.3,140.86,1374.25,139.49,1374.18,138.13Zm-63.91,27.45a23.61,23.61,0,1,1,24.28-22.92A23.61,23.61,0,0,1,1310.27,165.58Z"></path><path class="cls-2" d="M988.77,129.48h0a30.75,30.75,0,0,1,4.55-14.13A30.75,30.75,0,0,0,988.77,129.48Z"></path><path class="cls-2" d="M1017.09,102.93h0c.64,0,1.28,0,1.91,0C1018.37,103,1017.73,102.93,1017.09,102.93Z"></path><path class="cls-2" d="M1042.76,117.79a28.84,28.84,0,0,1,2.81,7.8A28.84,28.84,0,0,0,1042.76,117.79Z"></path><path class="cls-2" d="M1008.68,104.12a30.78,30.78,0,0,1,3.05-.73A30.78,30.78,0,0,0,1008.68,104.12Z"></path><path class="cls-2" d="M478,147.17q-10.87,0-18.2,4.91t-7.33,12.51a14.18,14.18,0,0,0,2.53,8,16.67,16.67,0,0,0,7,5.89,24.39,24.39,0,0,0,10.49,2.08,37.1,37.1,0,0,0,12.13-2.08,31,31,0,0,0,10.12-5.52,20,20,0,0,0,4.55-5,9.86,9.86,0,0,0,1.77-5V151.34a60.47,60.47,0,0,0-11.38-3.06A67.58,67.58,0,0,0,478,147.17Z"></path><path class="cls-2" d="M780.13,106.22a31,31,0,0,0-27.81,0,26.21,26.21,0,0,0-10.11,9.13,30.76,30.76,0,0,0-4.56,14.13H795a29.43,29.43,0,0,0-4.8-14A28.57,28.57,0,0,0,780.13,106.22Z"></path><path class="cls-2" d="M1057.19,199.76a76,76,0,0,1-6.93,3.48A76,76,0,0,0,1057.19,199.76Z"></path><path class="cls-2" d="M959.3,182.8a61.54,61.54,0,0,1-5.27-8.42A61.54,61.54,0,0,0,959.3,182.8Z"></path><path class="cls-2" d="M1088.25,148.39c-.19,1.68-.36,3.2-.5,4.56C1087.89,151.59,1088.06,150.07,1088.25,148.39Z"></path><path class="cls-2" d="M1021.17,180.48a36.69,36.69,0,0,0,5-.64A36.69,36.69,0,0,1,1021.17,180.48Z"></path><path class="cls-2" d="M1062.38,87.54c.86.64,1.7,1.28,2.52,1.94C1064.08,88.82,1063.24,88.18,1062.38,87.54Z"></path><path class="cls-2" d="M1059.82,85.71l-.49-.31.37.24Z"></path><path class="cls-2" d="M1059.85,85.73l0,0-.12-.07Z"></path><path class="cls-2" d="M958.64,211.31c-2.08-1.61-4.07-3.29-6-5.07C954.57,208,956.56,209.7,958.64,211.31Z"></path><path class="cls-2" d="M931.61,174.51c.2.53.38,1.06.59,1.58.08.2.17.4.25.59-.08-.19-.17-.39-.25-.59C932,175.57,931.81,175,931.61,174.51Z"></path><path class="cls-2" d="M1062.38,196.47c1.66-1.16,3.24-2.38,4.76-3.67.77-.65,1.52-1.32,2.25-2-.73.68-1.48,1.35-2.25,2C1065.62,194.09,1064,195.31,1062.38,196.47Z"></path><path class="cls-2" d="M1088.58,143.25c0,1.74-.14,3.45-.33,5.14C1088.44,146.7,1088.53,145,1088.58,143.25Z"></path><path class="cls-2" d="M954,174.38q-1.47-2.85-2.67-5.88Q952.56,171.53,954,174.38Z"></path><path class="cls-2" d="M1060.13,85.91c.29.19.57.4.84.6-.27-.2-.55-.41-.84-.6l-.28-.18Z"></path><path class="cls-2" d="M1061,86.51c.48.34,1,.69,1.41,1C1061.92,87.2,1061.45,86.85,1061,86.51Z"></path><path class="cls-2" d="M1060.13,85.91l-.31-.2,0,0Z"></path><path class="cls-2" d="M1021.59,209.79a76.51,76.51,0,0,0,23.94-4.6c1.62-.61,3.19-1.26,4.73-1.95-1.54.69-3.11,1.34-4.73,1.95A76.51,76.51,0,0,1,1021.59,209.79Z"></path><path class="cls-2" d="M1077.66,103.63q1.47,2.27,2.75,4.69Q1079.13,105.89,1077.66,103.63Z"></path><path class="cls-2" d="M1087,126.36A69.64,69.64,0,0,0,1083,113.7c-.39-.91-.79-1.81-1.21-2.71.42.9.82,1.8,1.21,2.71A69.64,69.64,0,0,1,1087,126.36Z"></path><path class="cls-2" d="M1031.26,75c2.56.36,5,.84,7.44,1.42C1036.3,75.87,1033.82,75.39,1031.26,75Z"></path><path class="cls-2" d="M965.39,189.87c-1.43-1.43-2.77-2.92-4-4.45C962.62,187,964,188.44,965.39,189.87Z"></path><path class="cls-2" d="M1044.91,78.28c-.5-.17-1-.35-1.51-.51-.77-.24-1.54-.48-2.32-.7.78.22,1.55.46,2.32.7C1043.91,77.93,1044.41,78.11,1044.91,78.28Z"></path><path class="cls-2" d="M1174.34,209.79a73.63,73.63,0,0,0,23.75-4.6,75.8,75.8,0,0,0,11.31-5.43,75.8,75.8,0,0,1-11.31,5.43A73.63,73.63,0,0,1,1174.34,209.79Z"></path><path class="cls-2" d="M1104.05,167.7q-1.2-3.06-2.1-6.21.9,3.15,2.1,6.21c.72,1.84,1.53,3.62,2.4,5.36a63.11,63.11,0,0,0,4.48,7.62,63.11,63.11,0,0,1-4.48-7.62C1105.58,171.32,1104.77,169.54,1104.05,167.7Z"></path><path class="cls-2" d="M1042.76,117.79a24.54,24.54,0,0,0-1.41-2.31,30.68,30.68,0,0,0-2.14-2.82,28.26,28.26,0,0,0-2.41-2.48,27.34,27.34,0,0,0-2.65-2.15,28.88,28.88,0,0,0-2.91-1.81c-.5-.27-1-.53-1.55-.77a25.17,25.17,0,0,0-3.28-1.23,30.45,30.45,0,0,0-3.54-.83c-.66-.11-1.34-.19-2-.26s-1.23-.12-1.85-.15-1.27,0-1.91,0a30.51,30.51,0,0,0-3.47.2c-.63.07-1.27.15-1.89.26a30.78,30.78,0,0,0-3.05.73,28.48,28.48,0,0,0-3.65,1.33c-.54.24-1.07.5-1.59.77a27,27,0,0,0-4.39,2.83,25.68,25.68,0,0,0-4.74,4.88c-.34.46-.67.94-1,1.42a30.75,30.75,0,0,0-4.55,14.13h57.39a34,34,0,0,0-.59-3.89A28.84,28.84,0,0,0,1042.76,117.79Z"></path><path class="cls-2" d="M1388.48,108.18a91.52,91.52,0,0,0-17.61-28,83.66,83.66,0,0,0-27-19.55,81.69,81.69,0,0,0-66.89,0,82.15,82.15,0,0,0-26.94,19.66,90.56,90.56,0,0,0-6.18,7.62,83.54,83.54,0,0,0-24.1-21.83c-13.77-8.37-30.43-12.61-49.52-12.61-18.48,0-34.83,4.11-48.61,12.2a86,86,0,0,0-27.6,25.4,83.92,83.92,0,0,0-27.35-25.39c-13.78-8.1-30.23-12.21-48.88-12.21s-35.15,4.16-49,12.37a85.36,85.36,0,0,0-32,32.91,91.67,91.67,0,0,0-11,44.35c0,.34,0,.67,0,1,0,.66,0,1.17,0,1.54,0-.37,0-.88,0-1.54l-9.46,6.32V22.79a20.6,20.6,0,0,0-20.6-20.61H855.46a20.61,20.61,0,0,0-20.61,20.61V81A86.34,86.34,0,0,0,815.6,65.71c-13.78-8.1-30.22-12.21-48.87-12.21s-35,4.12-48.75,12.24a7.64,7.64,0,0,0-7.2-10.21H644.89a7.64,7.64,0,0,0-7.32,5.41l-2.8,9.18-9.36,30.66-9.36-30.66-2.81-9.18a7.64,7.64,0,0,0-7.31-5.41H536.24A7.64,7.64,0,0,0,529,65.74h0c-13.57-8.13-30.51-12.25-50.51-12.25a128.52,128.52,0,0,0-36,5,117.86,117.86,0,0,0-15.2,5.62,10,10,0,0,0-8.08-9.82l-8.56-1.68a34.16,34.16,0,0,0-6.5-.63h-4.48a58.8,58.8,0,0,0-19.65,3.83v-.29H290.32V33.66a20.61,20.61,0,0,0-20.61-20.61H229.26a20.6,20.6,0,0,0-20.6,20.61V55.53a16.93,16.93,0,0,0-16.94,16.93v38.19a16.94,16.94,0,0,0,16.94,16.94V175c0,12.52,2.83,23.19,8.42,31.73A48.8,48.8,0,0,0,240,225.62a69.8,69.8,0,0,0,26.16,4.86,98.62,98.62,0,0,0,18.44-1.76,129.18,129.18,0,0,0,16.63-4.39l.7-.25a3.87,3.87,0,0,0,3.87,3.87H363a20.61,20.61,0,0,0,20.61-20.61V135.22a21,21,0,0,1,4.13-2.12,51.9,51.9,0,0,1,19-3.24h1.09c-.94,1.1-1.86,2.22-2.72,3.39a57.23,57.23,0,0,0-11.39,34.89A59.5,59.5,0,0,0,403,200.73a62.23,62.23,0,0,0,24.54,22.11,71.64,71.64,0,0,0,33,7.64,78.89,78.89,0,0,0,34.64-8c2-1,3.89-2,5.77-3.11.65.58,1.31,1.14,2,1.68,7.57,5.92,17.62,8.92,29.89,8.92,2.82,0,5.89-.15,9.4-.46a81.14,81.14,0,0,0,12.52-2.17,20.62,20.62,0,0,0,15.63-20V181.85L582,214.26A20.6,20.6,0,0,0,601.39,228h44.24A20.59,20.59,0,0,0,665,214.26l14.8-41.52c.4,1.12.8,2.24,1.24,3.35a83.47,83.47,0,0,0,18.6,28.34,87.72,87.72,0,0,0,29.17,19.14c11.21,4.58,23.95,6.91,37.88,6.91a99.53,99.53,0,0,0,34.89-6,92.84,92.84,0,0,0,27.73-16,77.55,77.55,0,0,0,9.85-10,49.26,49.26,0,0,0,11.14,16.81c10.19,10.05,24.07,15.16,41.27,15.16a103.29,103.29,0,0,0,23.09-2.81,121.66,121.66,0,0,0,21-6.73l22.94-9.63h0A90.06,90.06,0,0,0,980,223.57c11.22,4.58,24,6.91,37.88,6.91a99.59,99.59,0,0,0,34.9-6,92.84,92.84,0,0,0,27.73-16,76.89,76.89,0,0,0,14-15.49,85.3,85.3,0,0,0,38.09,30.37c11.25,4.69,24,7.08,38,7.08a96.92,96.92,0,0,0,35-6.06,90.45,90.45,0,0,0,27.11-16.08,78,78,0,0,0,11.25-12.11,87.53,87.53,0,0,0,6.2,7.55,84,84,0,0,0,26.76,19.51,82.34,82.34,0,0,0,67.28,0,85.81,85.81,0,0,0,26.79-19.41,88.67,88.67,0,0,0,17.79-28.25,93,93,0,0,0-.2-67.46ZM301.94,202.07c-2.29.94-4.72,1.86-7.33,2.74a104.93,104.93,0,0,1-13.9,3.67,77.1,77.1,0,0,1-14.54,1.39,49,49,0,0,1-18.45-3.36,28.46,28.46,0,0,1-13.4-11.09q-5.06-7.72-5.06-20.43V107H212.33V76.13h16.93V33.66h40.45V76.13h26.8V107h-26.8V160.6q.26,6.68,3.29,9.52c2,1.9,4.8,2.84,8.34,2.84a27.84,27.84,0,0,0,9.23-1.64q4.68-1.65,8.47-2.91l2.9,12.08L306.62,200C305.15,200.71,303.57,201.4,301.94,202.07ZM406.73,75.68v33.57h-.05a72,72,0,0,0-26.49,4.68q-11.9,4.68-17.19,13.78v79.63H322.55V76.13h36.91v25.29a62.69,62.69,0,0,1,10.32-14.48c1.19-1.22,2.41-2.37,3.68-3.46s2.59-2.1,4-3c.9-.63,1.81-1.22,2.73-1.78a39.67,39.67,0,0,1,20-6.05h4a12.77,12.77,0,0,1,2.53.25ZM549.82,207.34a61,61,0,0,1-9.36,1.64c-2.86.26-5.39.38-7.58.38q-11.37,0-17.19-4.55a21,21,0,0,1-7.58-12.39l-1-5.81a57.19,57.19,0,0,1-20.85,17.32,58.31,58.31,0,0,1-25.66,5.94,51.11,51.11,0,0,1-23.64-5.37,41.92,41.92,0,0,1-16.56-14.87,39.09,39.09,0,0,1-6.07-21.49,36.92,36.92,0,0,1,7.34-22.61Q429,135.66,441.87,130t29.58-5.62a91.78,91.78,0,0,1,15.93,1.39A61.64,61.64,0,0,1,501,129.73v-5.8q0-10.75-6.58-16.25t-20-5.51a57.23,57.23,0,0,0-20.73,3.8A111.87,111.87,0,0,0,433,116.84l-5.68-12.08-6.45-13.71q3.19-2.08,6.45-3.91l.19-.11c2.24-1.25,4.5-2.4,6.79-3.47a98.41,98.41,0,0,1,14-5.28,107.25,107.25,0,0,1,30.21-4.17q29.82,0,46.39,13.91t16.56,40.74v33.78c0,4,.63,6.79,1.89,8.44s3.41,2.57,6.45,2.74Zm95.81,0H601.39L554.62,76.13h41.71l29.08,95.22,29.07-95.22H692.4Zm191.5-59c-.25,2.24-.46,4.2-.63,5.86H738.41a26.18,26.18,0,0,0,15.68,23.35,33.07,33.07,0,0,0,13.65,2.94,35.9,35.9,0,0,0,17.31-4.29q8-4.31,10.75-11.38l34.38,9.86A55.21,55.21,0,0,1,816,192.8a71.71,71.71,0,0,1-21.61,12.39,78.47,78.47,0,0,1-27.68,4.68q-17,0-30.09-5.37a67,67,0,0,1-22.37-14.63,62.55,62.55,0,0,1-14-21.37,68.29,68.29,0,0,1-4.8-25.37,71,71,0,0,1,8.47-34.51,64.76,64.76,0,0,1,24.39-25q15.93-9.47,38.43-9.47a97.26,97.26,0,0,1,10.84.59,80,80,0,0,1,10,1.75q2.4.58,4.7,1.32a62.91,62.91,0,0,1,8.79,3.51q2.1,1,4.08,2.19c1.33.78,2.62,1.6,3.86,2.44a64.39,64.39,0,0,1,7,5.45,60.72,60.72,0,0,1,13.29,17,70.82,70.82,0,0,1,8.21,33.2A59.82,59.82,0,0,1,837.13,148.39Zm97.58,50.69c-2.44.9-4.85,1.89-7.26,2.87l0,0,0,.1a93.23,93.23,0,0,1-12.13,4.19,85.2,85.2,0,0,1-23.77,3.65q-17.45,0-26.8-9.23t-9.35-26.42V22.79h40.45V160.07c0,5.56.61,9.93,3,11.88,6.38,5.15,20-2.41,29.42-8.1.36,1.52.75,3,1.18,4.52.61,2.07,1.31,4.11,2.07,6.14.2.53.38,1.06.59,1.58.08.2.17.4.25.59a82.92,82.92,0,0,0,10.78,19C941.07,196.35,935.26,198.88,934.71,199.08Zm153.87-55.83c0,1.74-.14,3.45-.33,5.14s-.36,3.2-.5,4.56c0,.45-.09.89-.13,1.3H989.53a26.76,26.76,0,0,0,4.8,14.5c.27.36.54.71.82,1.05s.56.68.85,1a24.93,24.93,0,0,0,1.88,2,26.13,26.13,0,0,0,2.71,2.21,27.79,27.79,0,0,0,4.61,2.63,33.11,33.11,0,0,0,13.66,2.94c.77,0,1.55,0,2.31-.06a36.69,36.69,0,0,0,5-.64,35.39,35.39,0,0,0,10-3.59q8-4.31,10.75-11.38h0l34.38,9.86c-.42.86-.87,1.71-1.33,2.55s-1,1.66-1.45,2.47a55.41,55.41,0,0,1-9.13,11.05c-.73.68-1.48,1.35-2.25,2-1.52,1.29-3.1,2.51-4.76,3.67s-3.39,2.26-5.19,3.29a76,76,0,0,1-6.93,3.48c-1.54.69-3.11,1.34-4.73,1.95a76.51,76.51,0,0,1-23.94,4.6c-1.23.05-2.48.08-3.75.08q-4.23,0-8.23-.34t-7.76-1a72.2,72.2,0,0,1-7.28-1.67,69,69,0,0,1-6.81-2.35,73.86,73.86,0,0,1-9.31-4.58,63.55,63.55,0,0,1-13.06-10c-1.43-1.43-2.77-2.92-4-4.45-.71-.86-1.39-1.73-2.05-2.62a61.54,61.54,0,0,1-5.27-8.42q-1.47-2.85-2.67-5.88c-.62-1.55-1.16-3.12-1.65-4.7a68.55,68.55,0,0,1-2-7.71,69.51,69.51,0,0,1-1.2-13q0-3.56.3-7A69.47,69.47,0,0,1,955,108.62a63.53,63.53,0,0,1,14.33-17.81c.83-.72,1.69-1.43,2.57-2.11a69.63,69.63,0,0,1,7.5-5.12c.66-.39,1.33-.78,2-1.15s1.37-.72,2.07-1.07A64.9,64.9,0,0,1,990,78.59a71,71,0,0,1,9.4-2.67,85.68,85.68,0,0,1,12.91-1.66q2.71-.15,5.52-.15c2.82,0,5.55.11,8.21.33.89.08,1.76.16,2.63.26s1.73.21,2.58.33c2.56.36,5,.84,7.44,1.42l2.38.62c.78.22,1.55.46,2.32.7.51.16,1,.34,1.51.51a64.23,64.23,0,0,1,7.28,3c.69.34,1.38.69,2.06,1.06s1.36.74,2,1.13c1,.62,2.06,1.28,3.06,1.93l.49.31.31.2c.29.19.57.4.84.6.48.34,1,.69,1.41,1,.86.64,1.7,1.28,2.52,1.94s1.51,1.23,2.23,1.88c.51.45,1,.91,1.49,1.38s1,1,1.44,1.43c1,1,1.88,2,2.76,3a61.55,61.55,0,0,1,4.84,6.47q1.47,2.27,2.75,4.69c.47.88.91,1.77,1.34,2.67s.82,1.8,1.21,2.71a69.64,69.64,0,0,1,4.06,12.66c.32,1.44.58,2.9.81,4.37q.53,3.53.71,7.14c.06,1.21.09,2.43.09,3.65C1088.63,142.1,1088.6,142.68,1088.58,143.25Zm144.08,32.09-.16.3c-.41.82-.85,1.62-1.3,2.41a56.11,56.11,0,0,1-4.55,6.78c-.85,1.09-1.76,2.14-2.7,3.17s-1.83,2-2.82,2.92c-.67.64-1.35,1.27-2.06,1.88-1.47,1.29-3,2.51-4.63,3.67s-3.29,2.26-5,3.29a75.8,75.8,0,0,1-11.31,5.43,73.63,73.63,0,0,1-23.75,4.6c-1.25.05-2.52.08-3.81.08q-4.23,0-8.23-.35a75.41,75.41,0,0,1-16.82-3.31c-.85-.28-1.71-.57-2.55-.87s-1.66-.62-2.48-1c-1.46-.61-2.87-1.27-4.26-2-1.74-.85-3.43-1.75-5-2.72a65.53,65.53,0,0,1-5.59-3.74c-.89-.67-1.76-1.36-2.61-2.06s-1.68-1.44-2.49-2.19-1.6-1.51-2.37-2.3c-.56-.58-1.1-1.16-1.64-1.75a64.21,64.21,0,0,1-5.51-7,63.11,63.11,0,0,1-4.48-7.62c-.87-1.74-1.68-3.52-2.4-5.36q-1.2-3.06-2.1-6.21a65.42,65.42,0,0,1-1.51-6.4,73.17,73.17,0,0,1-1.2-13.35c0-1.24,0-2.48.09-3.71a68.35,68.35,0,0,1,5.65-24.25c.13-.3.28-.59.41-.89.5-1.11,1-2.21,1.6-3.3.24-.47.47-1,.72-1.41a63.53,63.53,0,0,1,4.7-7.3q1.29-1.74,2.7-3.37a64.65,64.65,0,0,1,6.1-6.18,69.6,69.6,0,0,1,5.51-4.33c1.73-1.23,3.5-2.42,5.39-3.53q15.93-9.36,38.17-9.36,23,0,38.81,9.61a61.86,61.86,0,0,1,21.35,21.15c.74,1.22,1.43,2.48,2.08,3.76.07.13.14.24.2.37h0l-.16,0-.21.06-.06,0-39,11.75-.08-.12a27.62,27.62,0,0,0-9.66-9.36,26.2,26.2,0,0,0-13.27-3.41,27.22,27.22,0,0,0-15,4.31,30.53,30.53,0,0,0-10.62,11.83,37.61,37.61,0,0,0-3.92,17.61,39.1,39.1,0,0,0,3.92,17.86,28.88,28.88,0,0,0,10.75,12,27.93,27.93,0,0,0,32.73-2.13,24,24,0,0,0,5.69-6.57l38.28,11.6.63.2.28.08C1232.88,174.94,1232.77,175.14,1232.66,175.34Zm141.29-26c-.2,2.08-.48,4.14-.86,6.17-.2,1.08-.42,2.15-.67,3.21a68.83,68.83,0,0,1-2.93,9.38q-1.2,3.06-2.65,5.94a67.29,67.29,0,0,1-11,15.76,65.94,65.94,0,0,1-7,6.51c-1,.79-2,1.53-3,2.26s-2.28,1.56-3.45,2.28c-.92.57-1.86,1.12-2.81,1.64-1.32.73-2.67,1.43-4.06,2.07-1,.44-1.93.86-2.91,1.24a56.36,56.36,0,0,1-12.21,3.31,62,62,0,0,1-6.46.66c-1.1.06-2.2.09-3.32.09a66.6,66.6,0,0,1-6.69-.33,61.09,61.09,0,0,1-6.43-1,56.84,56.84,0,0,1-9.13-2.73c-1-.38-1.95-.8-2.91-1.24a62.59,62.59,0,0,1-5.57-2.91,61,61,0,0,1-7.72-5.34,64.26,64.26,0,0,1-6.93-6.51q-1.45-1.58-2.8-3.24a68.14,68.14,0,0,1-7.09-10.64c-.54-1-1-2-1.54-3.07-.74-1.55-1.46-3.13-2.09-4.75s-1.24-3.34-1.75-5c-.26-.84-.5-1.7-.72-2.56s-.44-1.72-.63-2.58a69.82,69.82,0,0,1-1.21-7.25,73.43,73.43,0,0,1-.5-8.44,75.38,75.38,0,0,1,.47-8.44,69.14,69.14,0,0,1,1.38-8.1c.19-.84.4-1.68.63-2.51a65.08,65.08,0,0,1,2.29-6.87c0-.15.1-.3.16-.44.34-.84.72-1.65,1.08-2.47s.65-1.45,1-2.16c.49-1,1-2,1.51-3a71.34,71.34,0,0,1,5.18-8.24c.63-.87,1.28-1.72,2-2.56.89-1.12,1.83-2.22,2.8-3.29.71-.78,1.44-1.55,2.19-2.3s1.51-1.46,2.29-2.17a61.31,61.31,0,0,1,4.87-4c.84-.61,1.7-1.21,2.57-1.78a64,64,0,0,1,8.3-4.56,58.9,58.9,0,0,1,9-3.23c1.18-.31,2.38-.59,3.59-.83,1-.21,2-.38,3-.54a63.52,63.52,0,0,1,9.43-.7,61,61,0,0,1,12.76,1.33c1,.22,2.06.47,3.08.74a58.83,58.83,0,0,1,8.93,3.23,64.89,64.89,0,0,1,8.32,4.56c1.75,1.15,3.45,2.38,5.08,3.69a64.57,64.57,0,0,1,7,6.51,70.73,70.73,0,0,1,13.66,21.71,67.81,67.81,0,0,1,4.15,15.49c0,.31.09.62.13.93.25,1.91.42,3.86.53,5.83.07,1.36.12,2.73.12,4.11Q1374.3,145.84,1374,149.35Z"></path><path class="cls-2" d="M1311.63,118.38a23.61,23.61,0,1,0,22.92,24.28A23.6,23.6,0,0,0,1311.63,118.38Z"></path><path class="cls-2" d="M178.49,83.65c-2.3-27.4-14.17-49.37-35.27-65.31A89.5,89.5,0,0,0,92.13,0h-.38L86.62,0H86A89.78,89.78,0,0,0,27.7,24.79C9.12,42.36-.2,63.71,0,88.27c0,1.52.06,3,.14,4.39C.2,93.82.31,95,.46,96.38c1.26,11.31,5.29,21.29,8.66,28.72.43,1,.86,1.9,1.31,2.84.2.44.41.87.62,1.29l.28.6c3.71,7.75,7.82,15.39,12.56,23.37q1.29,2.18,2.61,4.32c2.26,3.68,4.63,7.4,7.15,11.21l-.67.06c-3.32.3-6.18.56-8.93,1.06A22.09,22.09,0,0,0,19,211.72C45.16,223.51,63.85,229,77.78,229c12,0,21.49-3.85,28.3-11.44,23.71-26.44,41.66-54.11,52.55-72.69,2.6-4.27,4.9-8.27,7-12.23.38-.7.75-1.4,1.12-2.11.9-1.7,1.69-3.26,2.42-4.77,3.13-6.39,7.46-16.22,9-27.77a68.67,68.67,0,0,0,.58-8.57C178.73,87.49,178.65,85.55,178.49,83.65ZM94.59,190.27l-.08.1-1.81,2.14-2.53,3L88.83,197l-.59.66c-.64.73-1.28,1.46-1.92,2.17l-.33.33-.1.1-.32.27-.08.06-.32.23-.11.06-.43.25-.09.05-.47.23-.11.05-.53.2-.19.06-.52.16-.19.05-.72.17-.16,0-.77.13-.28,0-.7.07-.27,0c-.35,0-.7.05-1.06.06H77.1c-.4,0-.8,0-1.22-.05l-.26,0c-.38,0-.77-.05-1.15-.09l-.25,0c-.46,0-.93-.1-1.41-.17l-.34,0-1.42-.22-.13,0c-.52-.08-1-.18-1.61-.29l-.38-.07c-.55-.11-1.1-.22-1.67-.35l-.2,0-1.64-.39-.41-.1-1.81-.46-.39-.11-1.7-.48-.4-.11-2-.61-.48-.15L56.31,198,56,198l-2.19-.74-.56-.19-2.36-.84-.1,0-2.26-.84-.57-.21-2.45-.94a134.17,134.17,0,0,0,21-4.52l.23-.07c1-.31,2-.64,3.07-1l8.49-2.83L73,178.55,70.43,175q-1.89-2.56-3.75-5.16Q65.3,167.92,64,166l-1-1.37-.62-.9c-3.55-5.09-6.73-9.83-9.73-14.51-1.19-1.85-2.36-3.72-3.52-5.59l-.85-1.42c-.52-.86-1-1.71-1.55-2.57-4.34-7.29-8.08-14.25-11.44-21.27l-.36-.76c-.16-.31-.31-.63-.45-.93l-.69-1.49-.48-1c-.65-1.42-1.21-2.71-1.71-3.93s-1.08-2.64-1.53-3.89c-.16-.43-.32-.86-.47-1.3q-.43-1.27-.84-2.58c-.53-1.76-1-3.49-1.3-5.14-.26-1.3-.46-2.6-.6-3.83l0-.14c-.09-.85-.15-1.53-.18-2.14s0-1-.07-1.58,0-1,0-1.57a57,57,0,0,1,4.83-23.89,54.83,54.83,0,0,1,2.73-5.34c.76-1.3,1.58-2.6,2.45-3.86a67.87,67.87,0,0,1,9.37-10.86c.7-.66,1.4-1.29,2.11-1.91a65.71,65.71,0,0,1,8.4-6.2c.72-.45,1.45-.89,2.2-1.31l.35-.2.42-.24A61.75,61.75,0,0,1,81.61,27c.86-.1,1.72-.19,2.58-.26s1.84-.13,2.75-.16c1.57-.06,3-.07,4.29,0l1.84.09a60.64,60.64,0,0,1,12.78,2.2q.91.26,1.8.54c1.2.38,2.4.8,3.58,1.25a65.21,65.21,0,0,1,8.71,4.12c.6.34,1.18.69,1.77,1,.93.57,1.85,1.16,2.73,1.76,1.09.74,2,1.37,2.78,2a67.58,67.58,0,0,1,6.65,5.72c1.21,1.19,2.37,2.43,3.46,3.69.37.42.72.85,1.07,1.27.69.86,1.37,1.73,2,2.61a58.93,58.93,0,0,1,5.76,9.84c.68,1.48,1.31,3,1.88,4.56.38,1,.74,2.1,1.07,3.16.16.54.32,1.08.47,1.62a72.28,72.28,0,0,1,1.82,8.48q.14.88.24,1.77c.16,1.18.29,2.4.39,3.62s.14,2.31.14,3.47a43.67,43.67,0,0,1-.35,5.2l-.18,1.24c-.13.81-.29,1.64-.47,2.45-.26,1.2-.57,2.43-.94,3.67s-.76,2.41-1.21,3.65c-.3.82-.61,1.63-.94,2.44-.4,1-.84,2-1.31,3.05s-.95,2-1.45,3.07l-.57,1.14-.11.22c-.28.57-.57,1.13-.87,1.7l-.53,1c-.33.64-.67,1.27-1,1.91-.73,1.37-1.49,2.72-2.25,4.06l-.79,1.4c-.58,1-1.18,2-1.78,3s-1,1.72-1.55,2.58l-4,6.76-1,1.69-3.62,5.78L126,147.24l-4.14,6.34-1.31,1.95-3.23,4.73-1.29,1.86-.12.17q-.71,1-1.44,2l-3.56,5-1.43,2-.12.16-1.58,2.12-3.88,5.1c-.51.67-1,1.34-1.55,2l-.13.17c-.56.72-1.13,1.44-1.72,2.18l-2.36,2.94c-.41.51-.82,1-1.24,1.52l-.57.7Z"></path><path class="cls-6" d="M141.42,134.57c.54-.87,1.07-1.76,1.59-2.64.62-1,1.23-2.08,1.83-3.13.28-.47.54-1,.81-1.43.79-1.39,1.57-2.78,2.32-4.19l1-2-.09-.06C147.47,123.92,144.94,128.57,141.42,134.57Z"></path><polygon class="cls-2" points="141.42 134.58 141.42 134.57 141.42 134.58 141.42 134.58"></polygon><path class="cls-2" d="M151.17,117q.79-1.62,1.53-3.24-.73,1.62-1.53,3.24Z"></path><path class="cls-2" d="M141.42,134.57q.81-1.31,1.59-2.64c-.52.88-1,1.77-1.59,2.64Z"></path><polygon class="cls-2" points="141.42 134.58 141.42 134.58 141.42 134.57 141.42 134.57 141.42 134.58"></polygon><polygon class="cls-2" points="141.42 134.58 141.42 134.58 141.42 134.58 141.42 134.58"></polygon><path class="cls-1" d="M56.27,28.54a68.35,68.35,0,0,1,24.54-8A68.35,68.35,0,0,0,56.27,28.54Z"></path><path class="cls-1" d="M53,30.46c.79-.5,1.6-1,2.41-1.44C54.61,29.49,53.8,30,53,30.46Z"></path><path class="cls-1" d="M20.05,88.1a63.3,63.3,0,0,1,5.39-26.59A63.3,63.3,0,0,0,20.05,88.1l0,1.71Z"></path><path class="cls-1" d="M20.37,94c-.09-.83-.17-1.66-.21-2.49C20.2,92.38,20.28,93.21,20.37,94Z"></path><path class="cls-1" d="M28.49,55.55c.84-1.46,1.75-2.88,2.71-4.29C30.24,52.67,29.33,54.09,28.49,55.55Z"></path><path class="cls-1" d="M31.85,189c7.19-.71,18.54-1.29,32.83-5.63C50.39,187.74,39,188.32,31.85,189Z"></path><path class="cls-1" d="M64.89,183.34c1-.29,1.93-.6,2.92-.93C66.82,182.74,65.85,183.05,64.89,183.34Z"></path><path class="cls-1" d="M58.63,169.75c.92,1.29,1.84,2.59,2.77,3.88q1.88,2.61,3.78,5.21c-1.26-1.73-2.53-3.47-3.78-5.21C60.47,172.34,59.55,171,58.63,169.75Z"></path><path class="cls-1" d="M77.78,209h0Z"></path><path class="cls-1" d="M29.26,120.84l.16.33c3.57,7.47,7.5,14.71,11.71,21.79-4.21-7.08-8.14-14.32-11.71-21.79Z"></path><path class="cls-5" d="M69,93.69,29.42,121.17c3.57,7.47,7.5,14.71,11.71,21.79l44.38-31.71.06-4.48A19.44,19.44,0,0,1,69,93.69Z"></path><path class="cls-5" d="M47.17,152.73q4.77,7.46,9.87,14.72l1.59,2.3,26.42-22.92.39-29.69L43.59,147C44.76,148.94,46,150.84,47.17,152.73Z"></path><path class="cls-5" d="M21.08,98.58c.39,1.94.88,3.86,1.45,5.75.29,1,.6,1.89.92,2.82.17.47.33.94.5,1.4.51,1.4,1.06,2.78,1.64,4.16s1.17,2.75,1.79,4.11L68,88.61c0-.58,0-1.16,0-1.75A19.43,19.43,0,0,1,86.08,68l.27-20.71-66,46.84C20.55,95.65,20.79,97.12,21.08,98.58Z"></path><path class="cls-5" d="M80.81,20.54a68.35,68.35,0,0,0-24.54,8l-.85.48c-.81.47-1.62.94-2.41,1.44a71.65,71.65,0,0,0-9.23,6.81c-.78.68-1.55,1.38-2.31,2.09A74.93,74.93,0,0,0,31.2,51.26c-1,1.41-1.87,2.83-2.71,4.29a61.94,61.94,0,0,0-3,6A63.3,63.3,0,0,0,20.05,88.1L86.43,41l.27-20.89c-1,0-2,.1-3,.18S81.76,20.43,80.81,20.54Z"></path><path class="cls-5" d="M158.52,85.33c-.11-1.32-.25-2.62-.42-3.91q-.12-1-.27-1.92a76.2,76.2,0,0,0-2-9.25c-.16-.59-.34-1.19-.52-1.78-.36-1.18-.75-2.34-1.18-3.49q-.94-2.58-2.08-5.05A65.1,65.1,0,0,0,145.67,49c-.72-1-1.46-1.94-2.23-2.89-.39-.48-.78-1-1.19-1.41-1.2-1.4-2.48-2.76-3.82-4.08a74.67,74.67,0,0,0-7.29-6.28c-1-.75-2-1.47-3-2.16s-2-1.32-3-1.94c-.64-.39-1.29-.77-1.94-1.14a70.91,70.91,0,0,0-9.59-4.54c-1.31-.5-2.62-1-3.94-1.38-.66-.21-1.33-.41-2-.59a68.08,68.08,0,0,0-14.15-2.44c-.67,0-1.35-.08-2-.1l-.28,21,67.51,48.31C158.68,88,158.63,86.69,158.52,85.33Z"></path><path class="cls-5" d="M90.82,68.28A19.44,19.44,0,0,1,106.87,87l44.3,30q.79-1.62,1.53-3.24c.49-1.09,1-2.18,1.41-3.28.36-.88.7-1.77,1-2.66.49-1.33.94-2.68,1.34-4s.76-2.73,1.06-4.13c.2-.92.38-1.86.53-2.8.08-.47.15-1,.21-1.42L91.09,47.31Z"></path><path class="cls-5" d="M90.32,106.64l-.07,4.8,41.52,28.33q8.17-8.43,16.65-19L106.25,92.3A19.46,19.46,0,0,1,90.32,106.64Z"></path><path class="cls-5" d="M89.8,146.31l17.38,15.16a195.52,195.52,0,0,0,21.19-18.28L90.18,117.13Z"></path><path class="cls-5" d="M89.45,172.9a153.84,153.84,0,0,0,13.78-8.59L89.72,152.53Z"></path><path class="cls-5" d="M85,153.18,61.4,173.63c1.25,1.74,2.52,3.48,3.78,5.21l2.63,3.57A127.79,127.79,0,0,0,85,175.22h-.35Z"></path><path class="cls-7" d="M90.32,106.64a18.77,18.77,0,0,1-3.45.21c-.44,0-.87,0-1.3-.08l-.06,4.48L41.13,143c.58,1,1.17,1.94,1.76,2.91.23.39.46.78.7,1.16l41.85-29.89-.39,29.69L58.63,169.75c.92,1.29,1.84,2.59,2.77,3.88L85,153.18l-.28,22H85c1.45-.73,2.93-1.5,4.42-2.32l.27-20.37,13.51,11.78c1.31-.91,2.63-1.85,4-2.84L89.8,146.31l.38-29.18,38.19,26.06q1.69-1.66,3.4-3.42L90.25,111.44Z"></path><path class="cls-7" d="M106.86,88a19.24,19.24,0,0,1-.61,4.32l42.17,28.52,2-2.47s-.5,1-1.47,2.81l.09.06c.18-.35.36-.71.55-1.06l.9-1.78c.24-.47.48-.94.71-1.42h0l-44.3-30C106.88,87.32,106.87,87.65,106.86,88Z"></path><path class="cls-7" d="M68,88.61,27.38,116.82l.4.87c.26.58.53,1.16.8,1.74s.45.94.68,1.41l.16.33L69,93.69A19.48,19.48,0,0,1,68,88.61Z"></path><path class="cls-7" d="M91.17,41.05l.28-21-4.75,0L86.43,41,20.05,88.1l0,1.71c0,.58.05,1.16.08,1.74,0,.83.12,1.66.21,2.49,0,0,0,.08,0,.12l66-46.84L86.08,68A17.34,17.34,0,0,1,88,68a18.84,18.84,0,0,1,2.83.29l.27-21,67.18,48.08a47.82,47.82,0,0,0,.41-6Z"></path><path class="cls-3" d="M148.42,120.82q-8.46,10.55-16.65,19-1.71,1.75-3.4,3.42a195.52,195.52,0,0,1-21.19,18.28c-1.32,1-2.64,1.93-4,2.84a153.84,153.84,0,0,1-13.78,8.59c-1.49.82-3,1.59-4.42,2.32a127.79,127.79,0,0,1-17.22,7.19c-1,.33-2,.64-2.92.93l-.21.06C50.39,187.74,39,188.32,31.85,189l-.15,0-.69.07-.25,0-.58.07-.28,0-.52.07-.28,0-.51.08-.23,0-.7.12a3.58,3.58,0,0,0-.35.09,2.19,2.19,0,0,0-.58.33,2.39,2.39,0,0,0-.23.22,2.22,2.22,0,0,0-.4.72s0,.1,0,.15a2,2,0,0,0-.07.55h0a2,2,0,0,0,.6,1.39l0,0,0,0a2,2,0,0,0,.55.36h0l3,1.32.69.3,2.85,1.24.39.17,2.51,1.06.59.25,2.67,1.1.54.21,2.32.93.44.17,2.5,1,.59.22,2.33.86.17.06c.81.3,1.59.57,2.38.85l.56.19c.77.27,1.53.53,2.28.77l.26.09,2,.65.51.15,2.1.64.41.11,1.8.51.39.11,1.95.5.45.11,1.75.41.21,0,1.82.38.44.08,1.75.32.13,0,1.59.24.39,0,1.59.18.27,0,1.37.11.3,0,1.45.06h1.81q.69,0,1.35-.06l.27,0c.35,0,.7-.06,1-.11l.36,0q.56-.08,1.08-.18l.14,0,1.14-.26.29-.08.85-.26.27-.09c.35-.12.69-.25,1-.39l.12,0c.29-.13.57-.26.84-.4l.26-.14c.24-.13.49-.27.72-.42l.17-.1c.28-.19.55-.38.81-.58l.19-.15.59-.5.2-.19c.24-.23.47-.46.69-.7h0l2-2.22c.2-.22.4-.45.59-.68.46-.52.92-1,1.37-1.57l.66-.75,1.35-1.59.57-.66c.63-.74,1.26-1.48,1.87-2.22l0-.06,1.79-2.16.58-.71,1.26-1.54c.21-.26.41-.52.62-.77l1.26-1.57.53-.67,1.74-2.2.12-.16,1.59-2.05.54-.69,1.16-1.53c.2-.25.39-.51.58-.76l1.16-1.54.5-.66,1.6-2.15.14-.2,1.43-1.95.51-.69,1-1.47.54-.75c.36-.49.71-1,1.06-1.48.15-.22.31-.43.46-.64l1.46-2.08.14-.2c.44-.62.86-1.24,1.29-1.86.15-.22.31-.44.46-.67.32-.47.65-.93,1-1.4.17-.24.33-.47.48-.7l1-1.44.39-.58,1.33-2,.13-.2c.39-.58.77-1.17,1.15-1.75.14-.21.28-.41.41-.62l.87-1.33.42-.64c.3-.46.59-.92.89-1.37l.33-.52,1.18-1.84.11-.19c.35-.55.7-1.09,1-1.63l.33-.52.8-1.28c.12-.18.23-.36.34-.54l.82-1.33.25-.39,1-1.7.07-.13.92-1.51c.09-.14.17-.29.26-.44l.71-1.18c.09-.15.18-.29.26-.44l.75-1.26.16-.26c.3-.52.61-1,.9-1.53h0a131.26,131.26,0,0,0,7.72-13.48c1-1.83,1.66-3.33,1.66-3.33C150.14,118.6,149.07,120,148.42,120.82Z"></path><path class="cls-2" d="M55.42,29l.85-.48Z"></path><path class="cls-2" d="M64.68,183.4l.21-.06Z"></path><path class="cls-2" d="M57,167.45q-5.09-7.27-9.87-14.72Q51.94,160.19,57,167.45Z"></path><path class="cls-2" d="M43.59,147c1.17,1.91,2.37,3.81,3.58,5.7-1.21-1.89-2.41-3.79-3.58-5.7Z"></path><path class="cls-2" d="M109.62,23.18c1.32.42,2.63.88,3.94,1.38C112.25,24.06,110.94,23.6,109.62,23.18Z"></path><path class="cls-2" d="M113.56,24.56a70.91,70.91,0,0,1,9.59,4.54A70.91,70.91,0,0,0,113.56,24.56Z"></path><path class="cls-2" d="M27.2,193.44a2,2,0,0,1-.55-.36A2,2,0,0,0,27.2,193.44Z"></path><path class="cls-2" d="M88.11,64.5A23.61,23.61,0,1,0,111,88.78,23.61,23.61,0,0,0,88.11,64.5Z"></path></g></svg>